<svg xmlns="http://www.w3.org/2000/svg" width="24" height="24" viewBox="0 0 100 100">
  <path d="M15.5,16.5v68c0,4.4,2.5,9,7,9h52c4.4,0,9-4.6,9-9v-52c0-0.6-0.2-1.1-0.7-1.5l-23-21c-0.4-0.3-0.8-0.5-1.3-0.5h-36
  	C18.1,9.5,15.5,12.1,15.5,16.5z M77.4,31.5H64.5c-2,0-3-3-3-5v-9.6L77.4,31.5z M19.5,16.5c0-2.2,0.8-3,3-3h35v13c0,4.4,2.5,9,7,9h15
  	v49c0,2.2-2.8,5-5,5h-52c-2,0-3-3-3-5V16.5z"/>
  <g>
  	<path d="M34.8,56.3h-3.5c-0.3,0-0.5,0.2-0.5,0.5v13.5c0,0.3,0.2,0.5,0.5,0.5h1.6c0.3,0,0.5-0.2,0.5-0.5v-4.8h1.1
  		c1.8,0,3.3-0.4,4.3-1.2c1.1-0.8,1.6-2,1.6-3.6C40.4,58.8,39.4,56.3,34.8,56.3z M33.4,58.7h1.3c1.1,0,1.9,0.2,2.4,0.6
  		c0.5,0.3,0.7,0.9,0.7,1.6c0,0.8-0.2,1.4-0.7,1.8c-0.5,0.4-1.5,0.6-2.7,0.6h-0.9V58.7z"/>
  	<path d="M49.1,56.3H45c-0.3,0-0.5,0.2-0.5,0.5v13.5c0,0.3,0.2,0.5,0.5,0.5h3.7c2.4,0,4.3-0.6,5.6-1.9c1.3-1.3,2-3.1,2-5.5
  		c0-2.2-0.6-4-1.9-5.2C53.1,57,51.4,56.3,49.1,56.3z M47.1,58.7h1.8c1.6,0,2.8,0.4,3.6,1.2c0.8,0.8,1.2,2,1.2,3.6
  		c0,1.7-0.4,2.9-1.3,3.7c-0.8,0.8-2.1,1.2-3.9,1.2h-1.4V58.7z"/>
  	<path d="M68.6,56.3h-7.5c-0.3,0-0.5,0.2-0.5,0.5v13.5c0,0.3,0.2,0.5,0.5,0.5h1.6c0.3,0,0.5-0.2,0.5-0.5v-5.3h5.1
  		c0.3,0,0.5-0.2,0.5-0.5v-1.4c0-0.3-0.2-0.5-0.5-0.5h-5.1v-4h5.5c0.3,0,0.5-0.2,0.5-0.5v-1.4C69.1,56.6,68.9,56.3,68.6,56.3z"/>
  </g>
</svg>
