<?xml version="1.0" encoding="utf-8"?>
<!-- Generator: Adobe Illustrator 21.0.0, SVG Export Plug-In . SVG Version: 6.00 Build 0)  -->
<svg version="1.1" id="Layer_1" xmlns="http://www.w3.org/2000/svg" xmlns:xlink="http://www.w3.org/1999/xlink" x="0px" y="0px"
	 viewBox="0 0 171.8 217.9" style="enable-background:new 0 0 171.8 217.9;" xml:space="preserve">
<path class="st0" d="M68.1,184.6H12.8c-2.7,0-4.8-2.2-4.8-4.8V90.3h104.3v21.9c0,2.2,1.8,4,4,4s4-1.8,4-4V86.3c0-2.2-1.8-4-4-4H4
	c-2.2,0-4,1.8-4,4v93.5c0,7.1,5.7,12.8,12.8,12.8H68c2.2,0,4-1.8,4-4S70.3,184.6,68.1,184.6z"/>
<path class="st0" d="M14,76.3c2.2,0,4-1.8,4-4V25.9C18,16,26,8,35.9,8h48.5c9.9,0,17.9,8,17.9,17.9v46.4c0,2.2,1.8,4,4,4s4-1.8,4-4
	V25.9C110.3,11.6,98.7,0,84.4,0H35.9C21.6,0,10,11.6,10,25.9v46.4C10,74.5,11.8,76.3,14,76.3z"/>
<path class="st0" d="M145,156.7L121.3,182l-11.5-12.2c-1.5-1.6-4-1.7-5.7-0.2c-1.6,1.5-1.7,4-0.2,5.7l14.4,15.3c0,0,0.1,0,0.1,0.1
	c0,0,0,0.1,0.1,0.1c0.1,0.1,0.2,0.1,0.3,0.2c0.1,0.1,0.2,0.2,0.3,0.2c0.1,0.1,0.3,0.2,0.4,0.2s0.2,0.1,0.3,0.1
	c0.2,0.1,0.3,0.1,0.5,0.2c0.1,0,0.2,0.1,0.2,0.1c0.3,0,0.5,0.1,0.8,0.1l0,0l0,0c0.3,0,0.5,0,0.8-0.1c0.1,0,0.2,0,0.2-0.1
	c0.2,0,0.3-0.1,0.5-0.2c0.1,0,0.2-0.1,0.3-0.1c0.1-0.1,0.3-0.1,0.4-0.2c0.1-0.1,0.2-0.1,0.3-0.2c0.1-0.1,0.2-0.1,0.3-0.2l0.1-0.1
	c0,0,0.1,0,0.1-0.1l26.6-28.3c1.5-1.6,1.4-4.1-0.2-5.7C149.1,155,146.5,155.1,145,156.7z"/>
<path class="st0" d="M126.3,126.9c-25.1,0-45.5,20.4-45.5,45.5s20.4,45.5,45.5,45.5s45.5-20.4,45.5-45.5S151.4,126.9,126.3,126.9z
	 M126.3,209.9c-20.7,0-37.5-16.8-37.5-37.5s16.8-37.5,37.5-37.5s37.5,16.8,37.5,37.5S147,209.9,126.3,209.9z"/>
<path class="st0" d="M58.2,155.6h4c1,0,1.9-0.9,1.9-1.9V140c4-1.6,6.8-5.4,6.8-9.9c0-5.9-4.8-10.7-10.7-10.7s-10.7,4.8-10.7,10.7
	c0,4.5,2.8,8.4,6.8,9.9v13.7C56.3,154.7,57.1,155.6,58.2,155.6z"/>
</svg>
