<?xml version="1.0" standalone="no"?>
<!DOCTYPE svg PUBLIC "-//W3C//DTD SVG 1.1//EN" "http://www.w3.org/Graphics/SVG/1.1/DTD/svg11.dtd">
<svg width="100%" height="100%" viewBox="0 0 350 270" version="1.1" xmlns="http://www.w3.org/2000/svg" xmlns:xlink="http://www.w3.org/1999/xlink" xml:space="preserve" style="fill-rule:evenodd;clip-rule:evenodd;stroke-linejoin:round;stroke-miterlimit:1.41421;">
    <g transform="matrix(0.645431,0,0,0.645431,-68.9369,-138.46)">
        <path d="M556.627,566.75C556.627,565.663 557.04,564.564 557.867,563.453C558.695,562.342 559.628,561.787 560.668,561.787C561.283,561.787 561.98,562.07 562.76,562.638C563.54,563.205 564.296,563.831 565.029,564.517C565.761,565.202 566.813,565.828 568.184,566.396C569.555,566.963 571.067,567.246 572.722,567.246C574.991,567.246 576.881,566.726 578.394,565.687C579.907,564.647 580.663,563.11 580.663,561.078C580.663,559.66 580.249,558.395 579.422,557.284C578.595,556.174 577.508,555.252 576.161,554.519C574.813,553.787 573.336,553.077 571.729,552.392C570.122,551.707 568.503,550.939 566.872,550.088C565.241,549.237 563.752,548.28 562.405,547.216C561.058,546.153 559.971,544.734 559.144,542.962C558.316,541.189 557.903,539.169 557.903,536.9C557.903,534.394 558.411,532.185 559.427,530.27C560.444,528.356 561.803,526.867 563.504,525.803C565.206,524.74 567.026,523.96 568.964,523.463C570.902,522.967 572.958,522.719 575.132,522.719C576.361,522.719 577.661,522.802 579.032,522.967C580.403,523.133 581.856,523.404 583.393,523.782C584.929,524.161 586.182,524.752 587.151,525.555C588.12,526.359 588.604,527.304 588.604,528.391C588.604,529.431 588.273,530.507 587.611,531.617C586.95,532.728 586.052,533.284 584.917,533.284C584.492,533.284 583.334,532.835 581.443,531.936C579.552,531.038 577.449,530.589 575.132,530.589C572.58,530.589 570.606,531.074 569.212,532.043C567.818,533.012 567.12,534.347 567.12,536.049C567.12,537.42 567.688,538.613 568.822,539.629C569.956,540.646 571.363,541.473 573.041,542.111C574.719,542.749 576.539,543.553 578.5,544.522C580.462,545.491 582.282,546.543 583.96,547.677C585.638,548.811 587.044,550.454 588.179,552.605C589.313,554.756 589.88,557.273 589.88,560.156C589.88,565.072 588.332,568.865 585.236,571.536C582.14,574.207 578.063,575.542 573.005,575.542C568.515,575.542 564.662,574.62 561.448,572.777C558.234,570.933 556.627,568.924 556.627,566.75ZM385.111,570.508C385.111,569.184 385.572,568.05 386.493,567.105C387.415,566.159 388.561,565.687 389.932,565.687C391.209,565.687 392.319,566.159 393.265,567.105C394.21,568.05 394.683,569.184 394.683,570.508C394.683,571.784 394.21,572.907 393.265,573.876C392.319,574.845 391.209,575.329 389.932,575.329C388.561,575.329 387.415,574.857 386.493,573.911C385.572,572.966 385.111,571.831 385.111,570.508ZM400.426,559.092L400.426,539.31C400.426,533.733 401.939,529.632 404.964,527.009C407.989,524.385 411.936,523.073 416.805,523.073C421.768,523.073 425.821,524.302 428.965,526.76C432.108,529.218 433.68,532.48 433.68,536.545C433.68,538.294 433.325,539.488 432.616,540.126C431.907,540.764 430.725,541.083 429.071,541.083C426.046,541.083 424.51,540.114 424.462,538.176C424.415,537.561 424.356,537.03 424.285,536.581C424.214,536.132 424.025,535.541 423.718,534.808C423.411,534.075 423.021,533.461 422.548,532.965C422.075,532.468 421.366,532.043 420.421,531.688C419.475,531.334 418.365,531.156 417.088,531.156C412.125,531.156 409.643,533.874 409.643,539.31L409.643,559.092C409.643,564.528 412.172,567.246 417.23,567.246C418.743,567.246 420.007,567.01 421.024,566.537C422.04,566.065 422.772,565.391 423.222,564.517C423.671,563.642 423.978,562.862 424.143,562.177C424.309,561.491 424.415,560.652 424.462,559.66C424.604,557.722 426.117,556.753 429,556.753C430.655,556.753 431.848,557.072 432.581,557.71C433.313,558.348 433.68,559.542 433.68,561.29C433.68,565.545 432.108,568.948 428.965,571.501C425.821,574.053 421.744,575.329 416.734,575.329C411.865,575.329 407.93,574.018 404.928,571.394C401.927,568.771 400.426,564.67 400.426,559.092ZM439.352,559.092L439.352,539.31C439.352,533.685 440.853,529.573 443.854,526.973C446.856,524.373 450.886,523.073 455.944,523.073C461.001,523.073 465.043,524.373 468.068,526.973C471.093,529.573 472.606,533.685 472.606,539.31L472.606,559.092C472.606,564.717 471.093,568.83 468.068,571.43C465.043,574.029 461.001,575.329 455.944,575.329C450.886,575.329 446.856,574.029 443.854,571.43C440.853,568.83 439.352,564.717 439.352,559.092ZM497.068,574.904L484.518,574.904C483.336,574.904 482.367,574.62 481.611,574.053C480.854,573.486 480.476,572.824 480.476,572.068L480.476,525.91C480.476,525.153 480.854,524.492 481.611,523.924C482.367,523.357 483.336,523.073 484.518,523.073L497.068,523.073C502.125,523.073 506.167,524.373 509.192,526.973C512.217,529.573 513.73,533.685 513.73,539.31L513.73,558.667C513.73,564.292 512.217,568.404 509.192,571.004C506.167,573.604 502.125,574.904 497.068,574.904ZM550.883,574.904L525.642,574.904C524.555,574.904 523.609,574.644 522.806,574.124C522.002,573.604 521.6,572.895 521.6,571.997L521.6,525.98C521.6,525.082 522.002,524.373 522.806,523.853C523.609,523.333 524.555,523.073 525.642,523.073L550.883,523.073C551.829,523.073 552.55,523.475 553.046,524.279C553.542,525.082 553.79,526.004 553.79,527.044C553.79,528.179 553.53,529.148 553.011,529.951C552.491,530.755 551.782,531.156 550.883,531.156L530.818,531.156L530.818,545.337L541.595,545.337C542.493,545.337 543.202,545.704 543.722,546.436C544.242,547.169 544.502,548.032 544.502,549.024C544.502,549.922 544.254,550.738 543.758,551.47C543.261,552.203 542.54,552.569 541.595,552.569L530.818,552.569L530.818,566.821L550.883,566.821C551.782,566.821 552.491,567.223 553.011,568.026C553.53,568.83 553.79,569.799 553.79,570.933C553.79,571.973 553.542,572.895 553.046,573.699C552.55,574.502 551.829,574.904 550.883,574.904ZM448.57,559.092C448.57,564.528 451.028,567.246 455.944,567.246C460.907,567.246 463.388,564.528 463.388,559.092L463.388,539.31C463.388,533.874 460.907,531.156 455.944,531.156C451.028,531.156 448.57,533.874 448.57,539.31L448.57,559.092ZM497.068,531.156L489.694,531.156L489.694,566.821L497.068,566.821C502.031,566.821 504.512,564.103 504.512,558.667L504.512,539.31C504.512,533.874 502.031,531.156 497.068,531.156Z" style="fill:rgb(68,68,68);"/>
    </g>
    <g transform="matrix(0.645431,0,0,0.645431,-68.9369,-138.46)">
        <path d="M347.816,566.75C347.816,565.663 348.229,564.564 349.056,563.453C349.884,562.342 350.817,561.787 351.857,561.787C352.472,561.787 353.169,562.07 353.949,562.638C354.729,563.205 355.485,563.831 356.218,564.517C356.95,565.202 358.002,565.828 359.373,566.396C360.744,566.963 362.256,567.246 363.911,567.246C366.18,567.246 368.07,566.726 369.583,565.687C371.096,564.647 371.852,563.11 371.852,561.078C371.852,559.66 371.438,558.395 370.611,557.284C369.784,556.174 368.697,555.252 367.35,554.519C366.002,553.787 364.525,553.077 362.918,552.392C361.311,551.707 359.692,550.939 358.061,550.088C356.43,549.237 354.941,548.28 353.594,547.216C352.247,546.153 351.16,544.734 350.333,542.962C349.505,541.189 349.092,539.169 349.092,536.9C349.092,534.394 349.6,532.185 350.616,530.27C351.633,528.356 352.992,526.867 354.693,525.803C356.395,524.74 358.215,523.96 360.153,523.463C362.091,522.967 364.147,522.719 366.321,522.719C367.55,522.719 368.85,522.802 370.221,522.967C371.592,523.133 373.045,523.404 374.582,523.782C376.118,524.161 377.371,524.752 378.34,525.555C379.309,526.359 379.793,527.304 379.793,528.391C379.793,529.431 379.462,530.507 378.8,531.617C378.139,532.728 377.241,533.284 376.106,533.284C375.681,533.284 374.523,532.835 372.632,531.936C370.741,531.038 368.638,530.589 366.321,530.589C363.769,530.589 361.795,531.074 360.401,532.043C359.007,533.012 358.309,534.347 358.309,536.049C358.309,537.42 358.877,538.613 360.011,539.629C361.145,540.646 362.552,541.473 364.23,542.111C365.908,542.749 367.728,543.553 369.689,544.522C371.651,545.491 373.471,546.543 375.149,547.677C376.827,548.811 378.233,550.454 379.368,552.605C380.502,554.756 381.069,557.273 381.069,560.156C381.069,565.072 379.521,568.865 376.425,571.536C373.329,574.207 369.252,575.542 364.194,575.542C359.704,575.542 355.851,574.62 352.637,572.777C349.423,570.933 347.816,568.924 347.816,566.75ZM156.66,559.092L156.66,539.31C156.66,533.733 158.172,529.632 161.197,527.009C164.223,524.385 168.17,523.073 173.038,523.073C178.001,523.073 182.055,524.302 185.198,526.76C188.342,529.218 189.913,532.48 189.913,536.545C189.913,538.294 189.559,539.488 188.85,540.126C188.141,540.764 186.959,541.083 185.305,541.083C182.279,541.083 180.743,540.114 180.696,538.176C180.649,537.561 180.589,537.03 180.519,536.581C180.448,536.132 180.259,535.541 179.951,534.808C179.644,534.075 179.254,533.461 178.781,532.965C178.309,532.468 177.6,532.043 176.654,531.688C175.709,531.334 174.598,531.156 173.322,531.156C168.359,531.156 165.877,533.874 165.877,539.31L165.877,559.092C165.877,564.528 168.406,567.246 173.464,567.246C174.976,567.246 176.241,567.01 177.257,566.537C178.273,566.065 179.006,565.391 179.455,564.517C179.904,563.642 180.211,562.862 180.377,562.177C180.542,561.491 180.649,560.652 180.696,559.66C180.838,557.722 182.35,556.753 185.234,556.753C186.888,556.753 188.082,557.072 188.814,557.71C189.547,558.348 189.913,559.542 189.913,561.29C189.913,565.545 188.342,568.948 185.198,571.501C182.055,574.053 177.978,575.329 172.967,575.329C168.099,575.329 164.163,574.018 161.162,571.394C158.16,568.771 156.66,564.67 156.66,559.092ZM205.37,553.491L205.37,571.997C205.37,572.895 204.921,573.604 204.023,574.124C203.125,574.644 202.038,574.904 200.762,574.904C199.533,574.904 198.457,574.644 197.535,574.124C196.614,573.604 196.153,572.895 196.153,571.997L196.153,525.91C196.153,525.153 196.436,524.492 197.004,523.924C197.571,523.357 198.28,523.073 199.131,523.073L213.17,523.073C224.372,523.073 229.974,528.013 229.974,537.892C229.974,541.768 229.135,544.888 227.457,547.252C225.779,549.615 223.522,551.222 220.685,552.073L229.974,569.303C230.21,569.586 230.328,569.964 230.328,570.437C230.328,571.619 229.714,572.718 228.485,573.734C227.256,574.75 225.956,575.258 224.585,575.258C223.214,575.258 222.151,574.526 221.394,573.06L211.326,553.491L205.37,553.491ZM232.952,571.075C232.952,570.981 232.999,570.744 233.094,570.366L246.778,525.768C247.062,524.775 247.759,524.007 248.87,523.463C249.98,522.92 251.245,522.648 252.663,522.648C254.081,522.648 255.357,522.92 256.492,523.463C257.626,524.007 258.335,524.775 258.619,525.768L272.303,570.366C272.398,570.744 272.445,570.981 272.445,571.075C272.445,572.115 271.807,573.013 270.531,573.77C269.254,574.526 267.954,574.904 266.631,574.904C264.882,574.904 263.842,574.289 263.511,573.06L260.817,563.63L244.58,563.63L241.886,573.06C241.555,574.289 240.515,574.904 238.766,574.904C237.395,574.904 236.083,574.538 234.831,573.805C233.578,573.072 232.952,572.162 232.952,571.075ZM286.555,552.569L286.555,571.997C286.555,572.895 286.094,573.604 285.172,574.124C284.251,574.644 283.175,574.904 281.946,574.904C280.67,574.904 279.583,574.644 278.685,574.124C277.786,573.604 277.337,572.895 277.337,571.997L277.337,525.98C277.337,525.082 277.739,524.373 278.543,523.853C279.346,523.333 280.292,523.073 281.379,523.073L306.124,523.073C307.07,523.073 307.779,523.463 308.251,524.243C308.724,525.023 308.96,525.957 308.96,527.044C308.96,528.179 308.712,529.148 308.216,529.951C307.72,530.755 307.023,531.156 306.124,531.156L286.555,531.156L286.555,545.337L297.403,545.337C298.301,545.337 298.999,545.692 299.495,546.401C299.991,547.11 300.239,547.984 300.239,549.024C300.239,549.97 299.991,550.797 299.495,551.506C298.999,552.215 298.301,552.569 297.403,552.569L286.555,552.569ZM309.953,527.186C309.953,526.099 310.201,525.141 310.698,524.314C311.194,523.487 311.915,523.073 312.86,523.073L342.852,523.073C343.798,523.073 344.519,523.487 345.015,524.314C345.511,525.141 345.759,526.099 345.759,527.186C345.759,528.32 345.499,529.301 344.979,530.128C344.459,530.956 343.75,531.369 342.852,531.369L332.5,531.369L332.5,571.997C332.5,572.895 332.04,573.604 331.118,574.124C330.196,574.644 329.121,574.904 327.892,574.904C326.615,574.904 325.528,574.644 324.63,574.124C323.732,573.604 323.283,572.895 323.283,571.997L323.283,531.369L312.86,531.369C311.962,531.369 311.253,530.967 310.733,530.164C310.213,529.36 309.953,528.368 309.953,527.186ZM246.494,556.398L258.832,556.398L252.663,534.631L246.494,556.398ZM213.17,531.156L205.37,531.156L205.37,546.259L213.17,546.259C218.227,546.259 220.756,543.754 220.756,538.743C220.756,533.685 218.228,531.157 213.17,531.156Z" style="fill:rgb(255,169,75);"/>
    </g>
    <g transform="matrix(0.482824,0,0,0.482824,-208.122,-61.3192)">
        <path d="M758.452,398.977C758.452,398.977 760.17,397.478 760.687,396.545C761.204,395.613 761.552,393.382 761.552,393.382L761.552,262.971C761.552,262.971 761.517,261.395 762.449,259.825C763.381,258.256 764.787,257.524 764.787,257.524L901.988,178.311C901.988,178.311 903.629,177.345 905.4,177.369C907.171,177.394 908.981,178.408 908.981,178.408L1046.21,257.636C1046.21,257.636 1047.59,258.488 1048.5,260.074C1049.27,261.411 1049.25,262.912 1049.25,262.912L1049.25,421.781C1049.25,421.781 1049.14,423.613 1048.36,424.952C1047.56,426.333 1046.1,427.311 1046.1,427.311L908.283,506.879C908.283,506.879 907.048,507.628 905.4,507.634C903.752,507.64 902.556,506.901 902.556,506.901L818.975,459.346C818.975,459.346 817.312,458.455 817.318,456.47C817.324,454.411 819.044,453.549 819.044,453.549L860.666,428.261C860.666,428.261 861.943,427.414 863.818,427.418C865.818,427.422 867.001,428.275 867.001,428.275L902.39,449.219C902.39,449.219 903.55,449.969 905.4,449.978C907.25,449.986 908.364,449.246 908.364,449.246L996.398,398.42C996.398,398.42 997.728,397.605 998.575,396.116C999.328,394.792 999.377,393.181 999.377,393.181L999.377,358.525C999.377,358.525 999.535,356.775 997.828,355.787C995.923,354.686 994.508,355.787 994.508,355.787L908.493,406.918C908.493,406.918 907.193,407.761 905.4,407.744C903.398,407.726 902.187,406.859 902.187,406.859L852.033,378.594C852.033,378.594 850.495,377.863 849.537,376.219C848.748,374.868 848.774,372.553 848.774,372.553L848.774,313.143C848.774,313.143 848.694,311.399 849.617,309.83C850.541,308.262 852.024,307.418 852.024,307.418L937.594,258.803C937.594,258.803 939.197,257.963 939.168,255.963C939.139,253.963 937.511,253.093 937.511,253.093L909.03,236.022C909.03,236.022 907.593,234.916 905.4,234.901C903.319,234.887 901.854,235.974 901.854,235.974L814.531,286.39C814.531,286.39 812.965,287.376 812.094,288.935C811.296,290.364 811.423,291.953 811.423,291.953L811.423,368.373L758.452,398.977Z" style="fill:rgb(255,169,75);"/>
    </g>
    <g transform="matrix(0.482824,0,0,0.482824,-204.608,-193.405)">
        <path d="M804.162,641.911L804.162,695.61C804.162,695.61 804.26,697.08 803.358,698.592C802.456,700.104 801.021,700.876 801.021,700.876L663.627,780.201C663.627,780.201 662.276,781.114 660.314,781.16C658.352,781.207 657.262,780.351 657.262,780.351L519.489,700.808C519.489,700.808 518.108,699.957 517.341,698.592C516.405,696.929 516.466,695.434 516.466,695.434L516.466,536.674C516.466,536.674 516.449,534.948 517.341,533.44C518.233,531.932 519.802,531.036 519.802,531.036L657.099,451.767C657.099,451.767 658.48,450.827 660.314,450.884C662.515,450.952 663.852,451.977 663.852,451.977L745.987,499.376C745.987,499.376 747.611,500.161 747.661,502.242C747.702,503.982 746.122,505.049 746.122,505.049L704.721,529.095C704.721,529.095 703.276,530.061 701.477,530.125C699.678,530.189 698.132,529.331 698.132,529.331L663.397,509.277C663.397,509.277 662.105,508.504 660.314,508.484C658.675,508.465 657.35,509.208 657.35,509.208L569.668,559.831C569.668,559.831 568.28,560.352 567.104,562.369C566.235,563.859 566.337,565.544 566.337,565.544L566.337,666.613C566.337,666.613 566.264,668.343 567.104,669.778C568.159,671.583 569.567,672.135 569.567,672.135L656.993,722.61C656.993,722.61 658.506,723.576 660.314,723.58C662.123,723.585 663.627,722.625 663.627,722.625L804.162,641.911Z" style="fill:rgb(68,68,68);"/>
    </g>
</svg>
