<?xml version="1.0" standalone="no"?>
<!DOCTYPE svg PUBLIC "-//W3C//DTD SVG 1.1//EN" "http://www.w3.org/Graphics/SVG/1.1/DTD/svg11.dtd">
<svg width="100%" height="100%" viewBox="0 0 350 90" version="1.1" xmlns="http://www.w3.org/2000/svg" xmlns:xlink="http://www.w3.org/1999/xlink" xml:space="preserve" style="fill-rule:evenodd;clip-rule:evenodd;stroke-linejoin:round;stroke-miterlimit:1.41421;">
    <g>
        <path d="M69.342,50.017L69.345,50.015L69.345,60.049C69.345,60.049 69.363,60.324 69.195,60.606C69.026,60.889 68.758,61.033 68.758,61.033L43.085,75.856C43.085,75.856 42.832,76.026 42.466,76.035C42.099,76.044 41.896,75.884 41.896,75.884L16.151,61.02C16.151,61.02 15.893,60.861 15.75,60.606C15.575,60.296 15.587,60.016 15.587,60.016L15.587,30.351C15.587,30.351 15.583,30.028 15.75,29.746C15.917,29.464 16.21,29.297 16.21,29.297L41.865,14.485C41.865,14.485 42.123,14.309 42.466,14.32C42.877,14.333 43.127,14.524 43.127,14.524L58.475,23.381C58.475,23.381 58.778,23.528 58.787,23.917C58.795,24.242 58.5,24.441 58.5,24.441L50.764,28.934C50.764,28.934 50.494,29.115 50.157,29.127C49.821,29.139 49.532,28.978 49.532,28.978L43.042,25.231C43.042,25.231 42.8,25.087 42.466,25.083C42.16,25.079 41.912,25.218 41.912,25.218L25.528,34.678C25.528,34.678 25.268,34.775 25.049,35.152C24.886,35.43 24.905,35.745 24.905,35.745L24.905,54.631C24.905,54.631 24.892,54.954 25.049,55.222C25.246,55.559 25.509,55.663 25.509,55.663L41.845,65.094C41.845,65.094 42.128,65.275 42.466,65.276C42.804,65.276 43.085,65.097 43.085,65.097L59.553,55.639C59.655,55.542 59.801,55.393 59.861,55.285C59.958,55.111 60.023,54.694 60.023,54.694L60.023,30.325C60.023,30.325 60.016,30.031 60.191,29.737C60.365,29.444 60.627,29.308 60.627,29.308L86.265,14.506C86.265,14.506 86.571,14.325 86.902,14.33C87.233,14.335 87.571,14.524 87.571,14.524L113.214,29.328C113.214,29.328 113.472,29.488 113.642,29.784C113.785,30.034 113.782,30.314 113.782,30.314L113.782,60C113.782,60 113.761,60.343 113.615,60.593C113.466,60.851 113.193,61.034 113.193,61.034L87.441,75.902C87.441,75.902 87.21,76.042 86.902,76.043C86.594,76.044 86.371,75.906 86.371,75.906L70.753,67.02C70.753,67.02 70.442,66.853 70.443,66.482C70.444,66.098 70.766,65.936 70.766,65.936L78.543,61.211C78.543,61.211 78.782,61.053 79.132,61.054C79.506,61.054 79.727,61.214 79.727,61.214L86.34,65.127C86.34,65.127 86.556,65.268 86.902,65.269C87.248,65.271 87.456,65.132 87.456,65.132L103.906,55.635C103.906,55.635 104.154,55.483 104.313,55.205C104.453,54.957 104.463,54.656 104.463,54.656L104.463,48.18C104.463,48.18 104.492,47.853 104.173,47.669C103.817,47.463 103.553,47.669 103.553,47.669L87.48,57.223C87.48,57.223 87.237,57.381 86.902,57.377C86.528,57.374 86.302,57.212 86.302,57.212L76.93,51.93C76.93,51.93 76.643,51.794 76.464,51.487C76.316,51.234 76.321,50.802 76.321,50.802L76.321,39.7C76.321,39.7 76.306,39.375 76.479,39.081C76.651,38.788 76.928,38.631 76.928,38.631L92.918,29.547C92.918,29.547 93.217,29.39 93.212,29.016C93.207,28.642 92.902,28.48 92.902,28.48L87.58,25.29C87.58,25.29 87.312,25.083 86.902,25.08C86.513,25.078 86.24,25.281 86.24,25.281L69.922,34.701C69.922,34.701 69.63,34.886 69.467,35.177C69.318,35.444 69.342,35.741 69.342,35.741L69.342,50.017ZM315.681,53.665C315.681,53.137 315.882,52.602 316.284,52.062C316.687,51.521 317.141,51.251 317.647,51.251C317.946,51.251 318.285,51.389 318.664,51.665C319.044,51.941 319.412,52.246 319.768,52.579C320.124,52.913 320.636,53.217 321.303,53.493C321.97,53.769 322.705,53.907 323.51,53.907C324.614,53.907 325.533,53.654 326.269,53.148C327.005,52.643 327.373,51.895 327.373,50.906C327.373,50.217 327.172,49.601 326.769,49.061C326.367,48.521 325.838,48.073 325.183,47.716C324.527,47.36 323.809,47.015 323.027,46.681C322.246,46.348 321.458,45.975 320.665,45.561C319.871,45.147 319.147,44.681 318.492,44.164C317.837,43.647 317.308,42.956 316.906,42.094C316.503,41.232 316.302,40.249 316.302,39.146C316.302,37.927 316.549,36.852 317.043,35.921C317.538,34.99 318.199,34.265 319.026,33.748C319.854,33.231 320.74,32.851 321.682,32.61C322.625,32.368 323.625,32.248 324.683,32.248C325.28,32.248 325.913,32.288 326.58,32.368C327.247,32.449 327.953,32.581 328.701,32.765C329.448,32.949 330.058,33.237 330.529,33.627C331,34.018 331.236,34.478 331.236,35.007C331.236,35.513 331.075,36.036 330.753,36.576C330.431,37.116 329.994,37.387 329.442,37.387C329.236,37.387 328.672,37.168 327.752,36.731C326.833,36.294 325.81,36.076 324.683,36.076C323.441,36.076 322.481,36.312 321.803,36.783C321.125,37.254 320.785,37.904 320.785,38.732C320.785,39.399 321.062,39.979 321.613,40.473C322.165,40.968 322.849,41.37 323.665,41.68C324.482,41.991 325.367,42.382 326.321,42.853C327.275,43.325 328.161,43.836 328.977,44.388C329.793,44.94 330.477,45.739 331.029,46.785C331.581,47.831 331.856,49.056 331.856,50.458C331.856,52.849 331.103,54.694 329.597,55.994C328.091,57.293 326.108,57.942 323.648,57.942C321.464,57.942 319.59,57.494 318.026,56.597C316.463,55.7 315.681,54.723 315.681,53.665ZM214.11,53.665C214.11,53.137 214.311,52.602 214.713,52.062C215.116,51.521 215.57,51.251 216.076,51.251C216.375,51.251 216.714,51.389 217.093,51.665C217.473,51.941 217.841,52.246 218.197,52.579C218.553,52.913 219.065,53.217 219.732,53.493C220.399,53.769 221.134,53.907 221.939,53.907C223.043,53.907 223.962,53.654 224.698,53.148C225.434,52.643 225.802,51.895 225.802,50.906C225.802,50.217 225.6,49.601 225.198,49.061C224.796,48.521 224.267,48.073 223.612,47.716C222.956,47.36 222.238,47.015 221.456,46.681C220.674,46.348 219.887,45.975 219.094,45.561C218.3,45.147 217.576,44.681 216.921,44.164C216.265,43.647 215.737,42.956 215.334,42.094C214.932,41.232 214.731,40.249 214.731,39.146C214.731,37.927 214.978,36.852 215.472,35.921C215.967,34.99 216.628,34.265 217.455,33.748C218.283,33.231 219.168,32.851 220.111,32.61C221.054,32.368 222.054,32.248 223.111,32.248C223.709,32.248 224.342,32.288 225.009,32.368C225.675,32.449 226.382,32.581 227.13,32.765C227.877,32.949 228.486,33.237 228.958,33.627C229.429,34.018 229.665,34.478 229.665,35.007C229.665,35.513 229.504,36.036 229.182,36.576C228.86,37.116 228.423,37.387 227.871,37.387C227.664,37.387 227.101,37.168 226.181,36.731C225.261,36.294 224.239,36.076 223.111,36.076C221.87,36.076 220.91,36.312 220.232,36.783C219.554,37.254 219.214,37.904 219.214,38.732C219.214,39.399 219.491,39.979 220.042,40.473C220.594,40.968 221.278,41.37 222.094,41.68C222.911,41.991 223.796,42.382 224.75,42.853C225.704,43.325 226.589,43.836 227.406,44.388C228.222,44.94 228.906,45.739 229.458,46.785C230.009,47.831 230.285,49.056 230.285,50.458C230.285,52.849 229.532,54.694 228.026,55.994C226.52,57.293 224.537,57.942 222.077,57.942C219.893,57.942 218.019,57.494 216.455,56.597C214.892,55.7 214.11,54.723 214.11,53.665ZM232.251,55.493C232.251,54.849 232.476,54.298 232.924,53.838C233.372,53.378 233.93,53.148 234.596,53.148C235.218,53.148 235.758,53.378 236.218,53.838C236.677,54.298 236.907,54.849 236.907,55.493C236.907,56.114 236.677,56.66 236.218,57.132C235.758,57.603 235.218,57.839 234.596,57.839C233.93,57.839 233.372,57.609 232.924,57.149C232.476,56.689 232.251,56.137 232.251,55.493ZM239.701,49.94L239.701,40.318C239.701,37.605 240.437,35.61 241.908,34.334C243.38,33.058 245.3,32.42 247.668,32.42C250.082,32.42 252.054,33.018 253.583,34.213C255.112,35.409 255.877,36.996 255.877,38.973C255.877,39.824 255.704,40.405 255.359,40.715C255.014,41.025 254.439,41.18 253.635,41.18C252.163,41.18 251.416,40.709 251.393,39.766C251.37,39.467 251.341,39.209 251.307,38.991C251.272,38.772 251.18,38.485 251.031,38.128C250.882,37.772 250.692,37.473 250.462,37.232C250.232,36.99 249.887,36.783 249.427,36.61C248.967,36.438 248.427,36.352 247.806,36.352C245.392,36.352 244.184,37.674 244.184,40.318L244.184,49.94C244.184,52.585 245.415,53.907 247.875,53.907C248.611,53.907 249.226,53.792 249.72,53.562C250.215,53.332 250.571,53.004 250.79,52.579C251.008,52.154 251.157,51.774 251.238,51.441C251.318,51.107 251.37,50.699 251.393,50.217C251.462,49.274 252.198,48.803 253.6,48.803C254.405,48.803 254.985,48.958 255.342,49.268C255.698,49.579 255.877,50.159 255.877,51.01C255.877,53.079 255.112,54.735 253.583,55.977C252.054,57.218 250.071,57.839 247.634,57.839C245.265,57.839 243.351,57.201 241.891,55.924C240.431,54.649 239.701,52.654 239.701,49.94ZM258.636,49.94L258.636,40.318C258.636,37.582 259.366,35.582 260.826,34.317C262.286,33.052 264.246,32.42 266.706,32.42C269.166,32.42 271.132,33.052 272.604,34.317C274.075,35.582 274.811,37.582 274.811,40.318L274.811,49.94C274.811,52.677 274.075,54.677 272.604,55.942C271.132,57.206 269.166,57.839 266.706,57.839C264.246,57.839 262.286,57.206 260.826,55.942C259.366,54.677 258.636,52.677 258.636,49.94ZM121.127,49.94L121.127,40.318C121.127,37.605 121.862,35.61 123.334,34.334C124.806,33.058 126.726,32.42 129.094,32.42C131.508,32.42 133.48,33.018 135.009,34.213C136.538,35.409 137.302,36.996 137.302,38.973C137.302,39.824 137.13,40.405 136.785,40.715C136.44,41.025 135.865,41.18 135.061,41.18C133.589,41.18 132.841,40.709 132.819,39.766C132.796,39.467 132.767,39.209 132.733,38.991C132.698,38.772 132.606,38.485 132.456,38.128C132.307,37.772 132.117,37.473 131.887,37.232C131.658,36.99 131.313,36.783 130.852,36.61C130.393,36.438 129.852,36.352 129.232,36.352C126.818,36.352 125.61,37.674 125.61,40.318L125.61,49.94C125.61,52.585 126.84,53.907 129.301,53.907C130.036,53.907 130.652,53.792 131.146,53.562C131.64,53.332 131.997,53.004 132.215,52.579C132.433,52.154 132.583,51.774 132.663,51.441C132.744,51.107 132.796,50.699 132.819,50.217C132.888,49.274 133.623,48.803 135.026,48.803C135.831,48.803 136.411,48.958 136.767,49.268C137.124,49.579 137.302,50.159 137.302,51.01C137.302,53.079 136.538,54.735 135.009,55.977C133.48,57.218 131.497,57.839 129.059,57.839C126.691,57.839 124.777,57.201 123.317,55.924C121.857,54.649 121.127,52.654 121.127,49.94ZM144.821,47.216L144.821,56.218C144.821,56.655 144.602,56.999 144.165,57.252C143.729,57.505 143.2,57.632 142.579,57.632C141.981,57.632 141.458,57.505 141.01,57.252C140.562,56.999 140.337,56.655 140.337,56.218L140.337,33.8C140.337,33.432 140.475,33.11 140.751,32.834C141.027,32.558 141.372,32.42 141.786,32.42L148.615,32.42C154.064,32.42 156.789,34.823 156.789,39.628C156.789,41.514 156.381,43.031 155.564,44.181C154.748,45.331 153.65,46.112 152.27,46.526L156.789,54.907C156.904,55.045 156.961,55.229 156.961,55.459C156.961,56.034 156.662,56.568 156.064,57.063C155.467,57.557 154.834,57.804 154.167,57.804C153.5,57.804 152.983,57.448 152.615,56.735L147.718,47.216L144.821,47.216ZM286.71,57.632L280.606,57.632C280.031,57.632 279.559,57.494 279.192,57.218C278.823,56.942 278.639,56.62 278.639,56.252L278.639,33.8C278.639,33.432 278.823,33.11 279.192,32.834C279.559,32.558 280.031,32.42 280.606,32.42L286.71,32.42C289.17,32.42 291.136,33.052 292.608,34.317C294.079,35.582 294.815,37.582 294.815,40.318L294.815,49.734C294.815,52.47 294.079,54.47 292.608,55.735C291.136,56.999 289.17,57.632 286.71,57.632ZM312.887,57.632L300.609,57.632C300.081,57.632 299.62,57.505 299.23,57.252C298.839,56.999 298.643,56.655 298.643,56.218L298.643,33.834C298.643,33.397 298.839,33.052 299.23,32.799C299.62,32.546 300.081,32.42 300.609,32.42L312.887,32.42C313.347,32.42 313.698,32.615 313.939,33.007C314.181,33.397 314.301,33.846 314.301,34.351C314.301,34.904 314.175,35.375 313.922,35.766C313.669,36.157 313.325,36.352 312.887,36.352L303.127,36.352L303.127,43.25L308.369,43.25C308.806,43.25 309.151,43.428 309.404,43.784C309.657,44.141 309.783,44.561 309.783,45.043C309.783,45.48 309.663,45.877 309.421,46.233C309.18,46.589 308.829,46.767 308.369,46.767L303.127,46.767L303.127,53.7L312.887,53.7C313.325,53.7 313.669,53.896 313.922,54.286C314.175,54.677 314.301,55.149 314.301,55.7C314.301,56.206 314.181,56.655 313.939,57.046C313.698,57.436 313.347,57.632 312.887,57.632ZM163.893,52.148L162.583,56.735C162.422,57.333 161.916,57.632 161.065,57.632C160.398,57.632 159.76,57.454 159.151,57.097C158.542,56.741 158.237,56.298 158.237,55.769C158.237,55.724 158.26,55.608 158.306,55.424L164.963,33.731C165.101,33.248 165.44,32.874 165.98,32.61C166.52,32.345 167.135,32.213 167.825,32.213C168.515,32.213 169.136,32.345 169.688,32.61C170.239,32.874 170.584,33.248 170.722,33.731L177.379,55.424C177.425,55.608 177.448,55.724 177.448,55.769C177.448,56.275 177.137,56.712 176.517,57.08C175.896,57.448 175.263,57.632 174.62,57.632C173.769,57.632 173.263,57.333 173.102,56.735L171.792,52.148L163.893,52.148ZM184.311,46.767L184.311,56.218C184.311,56.655 184.087,56.999 183.638,57.252C183.19,57.505 182.667,57.632 182.069,57.632C181.449,57.632 180.92,57.505 180.483,57.252C180.046,56.999 179.827,56.655 179.827,56.218L179.827,33.834C179.827,33.397 180.023,33.052 180.414,32.799C180.805,32.546 181.265,32.42 181.793,32.42L193.83,32.42C194.29,32.42 194.635,32.61 194.865,32.989C195.095,33.368 195.21,33.823 195.21,34.351C195.21,34.904 195.089,35.375 194.848,35.766C194.606,36.157 194.267,36.352 193.83,36.352L184.311,36.352L184.311,43.25L189.588,43.25C190.025,43.25 190.364,43.422 190.606,43.767C190.847,44.112 190.967,44.537 190.967,45.043C190.967,45.503 190.847,45.906 190.606,46.25C190.364,46.595 190.025,46.767 189.588,46.767L184.311,46.767ZM206.66,36.455L206.66,56.218C206.66,56.655 206.436,56.999 205.988,57.252C205.539,57.505 205.016,57.632 204.419,57.632C203.797,57.632 203.269,57.505 202.832,57.252C202.395,56.999 202.177,56.655 202.177,56.218L202.177,36.455L197.107,36.455C196.67,36.455 196.325,36.26 196.072,35.869C195.819,35.478 195.693,34.995 195.693,34.421C195.693,33.892 195.813,33.426 196.055,33.024C196.296,32.621 196.647,32.42 197.107,32.42L211.696,32.42C212.156,32.42 212.506,32.621 212.748,33.024C212.989,33.426 213.11,33.892 213.11,34.421C213.11,34.972 212.983,35.449 212.73,35.852C212.477,36.254 212.132,36.455 211.696,36.455L206.66,36.455ZM263.12,49.94C263.12,52.585 264.315,53.907 266.706,53.907C269.121,53.907 270.327,52.585 270.327,49.94L270.327,40.318C270.327,37.674 269.121,36.352 266.706,36.352C264.315,36.352 263.12,37.674 263.12,40.318L263.12,49.94ZM286.71,36.352L283.123,36.352L283.123,53.7L286.71,53.7C289.124,53.7 290.331,52.378 290.331,49.734L290.331,40.318C290.331,37.674 289.124,36.352 286.71,36.352ZM164.824,48.63L170.826,48.63L167.825,38.042L164.824,48.63ZM148.615,36.352L144.821,36.352L144.821,43.698L148.615,43.698C151.075,43.698 152.305,42.48 152.305,40.042C152.305,37.582 151.075,36.352 148.615,36.352Z" style="fill:#876543;"/>
    </g>
</svg>
